<svg width="26" height="29" viewBox="0 0 26 29" fill="none" xmlns="http://www.w3.org/2000/svg">
<path d="M5.66683 22.764C8.60816 22.764 11.0002 20.372 11.0002 17.4306V3.90396L23.0002 8.26663V18.1733C22.1933 17.6926 21.2727 17.4362 20.3335 17.4306C17.3922 17.4306 15.0002 19.8226 15.0002 22.764C15.0002 25.7053 17.3922 28.0973 20.3335 28.0973C23.2748 28.0973 25.6668 25.7053 25.6668 22.764V7.3333C25.667 7.05974 25.5829 6.79276 25.4259 6.56873C25.2689 6.3447 25.0467 6.1745 24.7895 6.0813L10.1228 0.747965C9.92149 0.674361 9.70535 0.650441 9.49279 0.678236C9.28022 0.706032 9.07751 0.784722 8.90186 0.907623C8.72622 1.03052 8.58283 1.194 8.48388 1.38417C8.38493 1.57435 8.33334 1.78559 8.3335 1.99996V12.84C7.52665 12.3592 6.60601 12.1028 5.66683 12.0973C2.7255 12.0973 0.333496 14.4893 0.333496 17.4306C0.333496 20.372 2.7255 22.764 5.66683 22.764Z" fill="#191919" fill-opacity="0.3"/>
</svg>
